<?xml version="1.0" encoding="utf-8"?>
<!-- Generator: Adobe Illustrator 25.1.0, SVG Export Plug-In . SVG Version: 6.00 Build 0)  -->
<svg version="1.1" id="Layer_1" xmlns="http://www.w3.org/2000/svg" xmlns:xlink="http://www.w3.org/1999/xlink" x="0px" y="0px"
	 width="473.1px" height="473.1px" viewBox="0 0 473.1 473.1" style="enable-background:new 0 0 473.1 473.1;" xml:space="preserve"
	>
<style type="text/css">
	.st0{fill:#FFFFFF;}
</style>
<path class="st0" d="M236.6,0C106-0.1,0.1,105.8,0,236.5C-0.1,367.1,105.8,473,236.5,473.1C367,473.2,473,367.3,473.1,236.6
	C473.2,106,367.3,0.1,236.6,0z M288.4,238.3c21.6,21.5,43.2,43.1,64.8,64.7c15.9,15.9,14,41.4-4,54.3c-13.9,10-32.9,8.8-45.3-3.3
	c-17.1-16.8-33.9-33.8-50.9-50.8c-5-5-10-9.9-14.9-14.9c-1.3-1.3-1.9-1.4-3.3,0c-21.5,21.6-43.1,43.2-64.7,64.8
	c-7.7,7.7-16.8,11.4-27.7,10.9c-19.1-0.9-34.1-17.3-33.4-36.4c0.3-9.6,4-17.7,10.7-24.4c21.6-21.6,43.1-43.2,64.7-64.7
	c1.4-1.4,1.6-2.1,0.1-3.6c-21.6-21.5-43.2-43.1-64.7-64.7c-10.2-10.3-13.5-22.7-9-36.5c4.4-13.7,14.4-21.6,28.5-24.1
	c1.7-0.3,3.5-0.3,4.6-0.4c10.6,0.1,19,3.8,26.1,10.9c21.4,21.5,42.9,42.9,64.3,64.4c1.5,1.6,2.3,1.8,4,0.1
	c21.4-21.6,43-43.1,64.5-64.6c17.2-17.2,45.2-13.3,56.7,7.7c7,12.9,5.3,29.1-4.4,40.1c-0.9,1.1-1.9,2.1-2.9,3.1
	c-21.3,21.3-42.6,42.6-63.9,63.9C287.1,236.1,286.9,236.8,288.4,238.3z"/>
</svg>
