<svg xmlns="http://www.w3.org/2000/svg" width="166.9mm" height="166.9mm" viewBox="0 0 473.1 473.1"><circle cx="236.6" cy="237.1" r="227.1"/><path d="M236.1,392.5c-24.4,0-29.8-4.6-25-19,5.6-16.5,5.6-16.6-14.8-23.5a106.2,106.2,0,0,1-29.7-15.4c-3.4-2.5-6.8-4.7-10.4-1.1-2,2.1-5.7,3.9-2.7,8,8.5,11.3-3.8,14.7-8.8,18.7s-9.3-4.3-13.4-7.4a102.8,102.8,0,0,1-14.1-13.9c-3-3.4-10.6-6.7-4.4-12.3,4.5-4,7.2-14.4,16.3-8.9,4.5,2.7,7,2.2,9.9-1.1s1-7.2-1.4-10.5c-10.7-14.7-16.9-31.3-20.2-49-.8-4-1.6-7.7-7.1-7.5-3.7.1-5.9.8-6.5,5.1-2,13.7-12.6,5.8-18.8,6.2-8.3.5-4.4-7.7-4.8-12.2a113.4,113.4,0,0,1,0-21.8c.4-4.4-3.6-12.8,4.5-12.4,6.2.4,16.7-7.6,19,5.8.7,4.1,2.3,5.4,6.3,5.5s6.5-3,7.3-7.2a129.7,129.7,0,0,1,21-50.8c5.4-7.9-.7-14-7.3-10.4-12,6.7-13.7-4.8-18.1-8.8-6.9-6.4,2.6-9.6,5.8-13.5a97.5,97.5,0,0,1,14-14c3.6-2.8,6.3-11.4,12-6s16,6.8,10,17.3c-2,3.5-2.5,5.5.5,8.3s6.7,3,10.4.3c15.1-11.4,32.4-17.5,50.8-21,3.4-.6,6.4-1.5,6.5-5.8s.5-7.1-4.1-7.4c-14.7-.9-6.9-12-7.3-18-.6-9.7,8.4-5.2,13.3-5.8a122.1,122.1,0,0,1,21.8,0c4.4.3,12.3-3.3,11.7,5.6-.4,6,5.5,15.2-5.2,17.8-4.8,1.2-6.6,2.6-6.4,7.5s4.6,5.8,8.2,6.5c17.8,3.4,34.3,9.6,48.9,20.4,3.7,2.7,6.9,3.5,10.5.1s3.2-4.6.9-8.2c-6.7-10.6,5.1-13,9.6-17.5s8.5,2.9,12,5.7a92,92,0,0,1,13.9,14c3.2,4,12.8,7,6.2,13.5-4.2,4.1-6.1,15.4-18,9.1-6.9-3.7-12.3,3.2-7.7,10,11.1,16.2,17.5,33.8,21.7,52.7,1.9,8.4,11.2,7.9,12.1,2.3,2.5-15.6,13.6-8.4,19.6-7.9,9.9.8,3.9,10.4,4.9,16a66.3,66.3,0,0,1,0,17.8c-.5,4.5,3.6,12.9-4.5,12.4-6.2-.3-16.8,7.7-19.1-5.8-.7-4.1-2.3-5.4-6.3-5.5s-6.5,3.1-7.3,7.3c-3.5,18.4-9.9,35.6-21.6,50.4-2.3,2.8-3.2,6.1-.5,8.8s4.4,6.1,9.6,2.3c10.4-7.8,12.8,4.8,17.4,9s-2.4,8.7-5.3,12.1a140,140,0,0,1-15.4,15.4c-3.4,2.9-6.6,11.3-12.1,5.2-4.1-4.6-16.9-7-8.9-17.5,3.9-5.2,0-7.2-2.4-9.6s-6-1.6-8.8.6c-14.9,11.8-32,18.4-50.4,21.5-7.7,1.3-8.5,10.5-6.7,10.8,15.3,3.2,14.3,15.7,10.4,23.6S241.7,390.1,236.1,392.5Z" fill="#fff"/><path d="M205.4,168.2c10.8,1.8,17.7,7.4,17.2,18.4s-7.5,17-18.3,16.6-17.2-7.1-16.8-18S195.3,169.2,205.4,168.2Z"/><path d="M282.6,185.5c-1.4,11.2-7.3,17.9-18.1,17.7S247,196.8,247,185.8s7.2-17.3,17.7-17.3S281.3,175.3,282.6,185.5Z"/><path d="M223,290.3c-1.9,10.7-8.1,17.1-18.9,16.4s-17.2-7.2-16.6-18.2,7.7-16.8,18.5-16.3S222.2,279.7,223,290.3Z"/><path d="M282.5,288.8c-.9,11-6.8,17.8-17.4,18s-17.8-6-18.1-16.9,6.4-17.4,17.2-17.8S280.9,278.4,282.5,288.8Z"/><path d="M175.4,220.2c11,.9,17.3,6.8,17.1,17.7s-6.5,17.1-17.4,17-17.2-6.6-17.1-17.4S164.6,220.9,175.4,220.2Z"/><path d="M234.9,220.2c11.1.9,17.3,6.8,17.2,17.7s-6.6,17.1-17.5,17-17.2-6.6-17.1-17.5S224.2,220.9,234.9,220.2Z"/><path d="M294.3,255.1c-11-.9-17.3-6.7-17.2-17.7s6.6-17.1,17.5-17,17.1,6.6,17.1,17.5S305,254.4,294.3,255.1Z"/></svg>