<svg xmlns="http://www.w3.org/2000/svg" width="166.9mm" height="166.9mm" viewBox="0 0 473.1 473.1"><circle cx="236.6" cy="237.1" r="227.1"/><path d="M237.9,161.2a12.4,12.4,0,1,0,12.4,12.4A12.4,12.4,0,0,0,237.9,161.2Zm0,16.9a4.5,4.5,0,1,1,4.5-4.5A4.5,4.5,0,0,1,237.9,178.1Z" fill="#fff"/><path d="M237.9,288.1a12.4,12.4,0,1,0,12.4,12.4A12.5,12.5,0,0,0,237.9,288.1Zm0,16.9a4.5,4.5,0,1,1,4.5-4.5A4.5,4.5,0,0,1,237.9,305Z" fill="#fff"/><path d="M348.8,241a12.5,12.5,0,1,0,0-7.9H330.6a87.6,87.6,0,0,0-1-10.3l8.6-1.7a3.9,3.9,0,1,0-1.5-7.7l-8.6,1.7q-1.4-5.1-3-9.9l16.8-6.9a12.9,12.9,0,0,0,4.6,3.3,12.7,12.7,0,0,0,4.7.9,12.8,12.8,0,0,0,4.8-.9,12.6,12.6,0,0,0,6.7-16.3,12.2,12.2,0,0,0-6.7-6.7,12.1,12.1,0,0,0-9.5,0,12.2,12.2,0,0,0-6.7,6.7,10.9,10.9,0,0,0-.9,5.6l-16.9,7a88.2,88.2,0,0,0-4.8-9.1l7.3-4.9a4,4,0,1,0-4.4-6.6l-7.3,4.9a81.2,81.2,0,0,0-6.6-7.9l12.9-12.9a11.7,11.7,0,0,0,5.5,1.3,12.5,12.5,0,0,0,12.5-12.4,12.2,12.2,0,0,0-3.7-8.8,12.4,12.4,0,0,0-17.5,0,12.4,12.4,0,0,0-2.4,14.3l-12.9,12.9a102.2,102.2,0,0,0-7.9-6.6l4.9-7.3a4,4,0,1,0-6.6-4.4l-7.1,10.5a4,4,0,0,0,1.1,5.5,85.1,85.1,0,1,1-14.6-7.8,3.9,3.9,0,0,0,5.1-2.1h0l8.5-20.4h.8a12.4,12.4,0,0,0,4.8-23.9,12.1,12.1,0,0,0-9.5,0,12.2,12.2,0,0,0-6.7,6.7,12.1,12.1,0,0,0,0,9.5,10.9,10.9,0,0,0,3.3,4.6l-7,16.8q-4.8-1.7-9.9-3l1.8-8.6a4,4,0,0,0-3.1-4.6,3.9,3.9,0,0,0-4.7,3.1l-1.7,8.6c-3.4-.5-6.8-.8-10.3-1V126.1a12.5,12.5,0,1,0-7.9,0v18.2c-3.5.2-6.9.5-10.2,1l-1.8-8.6a3.9,3.9,0,1,0-7.7,1.5l1.7,8.7a81,81,0,0,0-9.9,3L199.1,133a12.9,12.9,0,0,0,3.3-4.6,12.1,12.1,0,0,0,0-9.5,12.9,12.9,0,0,0-6.7-6.7,12.1,12.1,0,0,0-9.5,0,12.4,12.4,0,0,0,4.7,23.9h.9l6.9,16.8a97.5,97.5,0,0,0-9,4.9l-5-7.4a4,4,0,0,0-5.5-1.1,3.9,3.9,0,0,0-1,5.5l4.9,7.4a98.7,98.7,0,0,0-8,6.5l-12.9-12.9a12.5,12.5,0,0,0-2.3-14.3,12.6,12.6,0,0,0-17.6,0,12.5,12.5,0,0,0-3.6,8.8,12.3,12.3,0,0,0,12.4,12.4,11.7,11.7,0,0,0,5.5-1.3l12.9,12.9a84,84,0,0,0-6.5,8l-7.4-5a4,4,0,0,0-4.4,6.6l7.4,4.9c-1.8,3-3.4,6-4.9,9.1l-16.8-7a13.5,13.5,0,0,0-.9-5.6,12.9,12.9,0,0,0-6.7-6.7,12.3,12.3,0,0,0-9.6,0,12.4,12.4,0,0,0-6.7,16.2,12.7,12.7,0,0,0,6.7,6.8,13.2,13.2,0,0,0,9.6,0,13.9,13.9,0,0,0,4.6-3.3l16.8,6.9a81,81,0,0,0-3,9.9l-8.7-1.7a3.8,3.8,0,0,0-4.6,3.1,3.9,3.9,0,0,0,3.1,4.6l8.6,1.7c-.5,3.4-.8,6.8-1,10.3H126.9a12.5,12.5,0,1,0,0,7.9h18.2c.2,3.5.5,6.9,1,10.3l-8.6,1.7a3.9,3.9,0,0,0-3.1,4.6,4,4,0,0,0,3.9,3.2h.7l8.7-1.7a81,81,0,0,0,3,9.9l-16.8,6.9a13.9,13.9,0,0,0-4.6-3.3,13.3,13.3,0,0,0-9.6,0,12.7,12.7,0,0,0-6.7,6.8,12.4,12.4,0,0,0,6.7,16.2,13.3,13.3,0,0,0,9.6,0,12.9,12.9,0,0,0,6.7-6.7,13.5,13.5,0,0,0,.9-5.6l16.8-7c1.5,3.1,3.1,6.1,4.9,9.1l-7.4,4.9a4,4,0,0,0-1.1,5.5,4.2,4.2,0,0,0,3.3,1.7,4,4,0,0,0,2.2-.6l7.4-5a84,84,0,0,0,6.5,8l-12.9,12.9a13.1,13.1,0,0,0-5.5-1.3,12.3,12.3,0,0,0-12.4,12.4,12.5,12.5,0,0,0,3.6,8.8,12.6,12.6,0,0,0,17.6,0,12.5,12.5,0,0,0,2.3-14.3l12.9-12.9a98.7,98.7,0,0,0,8,6.5l-4.9,7.4a3.9,3.9,0,0,0,1,5.5,4.7,4.7,0,0,0,2.2.7,4,4,0,0,0,3.3-1.8l5-7.4a97.5,97.5,0,0,0,9,4.9L191.8,338a12.6,12.6,0,0,0-12.4,7.7,12.4,12.4,0,0,0,6.8,16.2,12.8,12.8,0,0,0,4.7,1,13.7,13.7,0,0,0,4.8-1,12.9,12.9,0,0,0,6.7-6.7,12.1,12.1,0,0,0,0-9.5,12.9,12.9,0,0,0-3.3-4.6l6.9-16.9a81,81,0,0,0,9.9,3l-1.7,8.7a3.8,3.8,0,0,0,3.1,4.6h.8a3.9,3.9,0,0,0,3.8-3.2l1.8-8.6c3.3.5,6.7.8,10.2,1V348a12.5,12.5,0,1,0,7.9,0V329.8c3.5-.2,6.9-.5,10.3-1l1.7,8.6a4,4,0,0,0,3.9,3.2h.8a4,4,0,0,0,3.1-4.6l-1.8-8.7a81,81,0,0,0,9.9-3l7,16.9a10.9,10.9,0,0,0-3.3,4.6,12.1,12.1,0,0,0,0,9.5,12.2,12.2,0,0,0,6.7,6.7,12.8,12.8,0,0,0,4.7,1,13.3,13.3,0,0,0,4.8-1A12.4,12.4,0,0,0,284,338l-7-16.8a99.3,99.3,0,0,0,9.1-4.9l4.9,7.4a4.1,4.1,0,0,0,3.3,1.8,4.4,4.4,0,0,0,2.2-.7,4,4,0,0,0,1.1-5.5l-4.9-7.4a97.3,97.3,0,0,0,7.9-6.5l12.9,12.9a12.4,12.4,0,0,0,2.4,14.3,12.4,12.4,0,0,0,17.5,0,12.2,12.2,0,0,0,3.7-8.8,12.5,12.5,0,0,0-12.5-12.4,13.1,13.1,0,0,0-5.5,1.3l-12.9-12.9a84,84,0,0,0,6.5-8l7.4,5a4.6,4.6,0,0,0,2.2.6,3.9,3.9,0,0,0,2.2-7.2l-7.3-4.9c1.7-3,3.4-6,4.8-9.1l16.9,7a10.9,10.9,0,0,0,.9,5.6,12.2,12.2,0,0,0,6.7,6.7,12.7,12.7,0,0,0,4.7.9,12.8,12.8,0,0,0,4.8-.9,12.6,12.6,0,0,0,6.7-6.7,12.1,12.1,0,0,0,0-9.5,12.4,12.4,0,0,0-6.7-6.8,12.4,12.4,0,0,0-14.1,3.3l-16.8-6.9q1.6-4.8,3-9.9l8.6,1.7h.8a4,4,0,0,0,3.9-3.2,4,4,0,0,0-3.2-4.6l-8.6-1.7a87.6,87.6,0,0,0,1-10.3Zm-1.7-52.6a4.5,4.5,0,0,1,2.4-2.5l1.7-.3a5.7,5.7,0,0,1,1.8.3,4.9,4.9,0,0,1,2.4,2.5,4,4,0,0,1,0,3.4,4.9,4.9,0,0,1-2.4,2.5,5.3,5.3,0,0,1-3.5,0,4.5,4.5,0,0,1-2.4-2.5A4,4,0,0,1,347.1,188.4Zm-160.4-63a4.6,4.6,0,0,1,2.5-5.9,4.5,4.5,0,0,1,5.9,2.5,5,5,0,0,1,0,3.4,4.5,4.5,0,0,1-2.5,2.4h0A4.5,4.5,0,0,1,186.7,125.4Zm94-3.4a4.2,4.2,0,0,1,2.4-2.5,5.1,5.1,0,0,1,1.7-.3l1.8.3a4.7,4.7,0,0,1,2.4,5.9,4.5,4.5,0,0,1-5.9,2.4h0a4.4,4.4,0,0,1-2.4-5.8Zm-42.8-12.2a4.5,4.5,0,0,1,4.5,4.5,4.5,4.5,0,0,1-9,0A4.5,4.5,0,0,1,237.9,109.8ZM126.2,194.3a5,5,0,0,1-3.4,0,5.1,5.1,0,0,1-2.5-2.5,5,5,0,0,1,0-3.4,5.1,5.1,0,0,1,2.5-2.5,5,5,0,0,1,3.4,0,5.1,5.1,0,0,1,2.5,2.5,5,5,0,0,1,0,3.4A5.1,5.1,0,0,1,126.2,194.3Zm2.5,91.4a5.1,5.1,0,0,1-2.5,2.5,5,5,0,0,1-3.4,0,5.1,5.1,0,0,1-2.5-2.5,5,5,0,0,1,0-3.4,4.5,4.5,0,0,1,2.5-2.4,3.8,3.8,0,0,1,3.4,0,4.5,4.5,0,0,1,2.5,2.4A5,5,0,0,1,128.7,285.7Zm19.2-132.2a4.8,4.8,0,0,1-1.3-3.2,4.6,4.6,0,0,1,1.3-3.2,4.6,4.6,0,0,1,6.4,0,4.7,4.7,0,0,1,0,6.4,4.6,4.6,0,0,1-6.4,0Zm-32.7,88.1a4.6,4.6,0,0,1,0-9.1,4.6,4.6,0,0,1,0,9.1ZM154.3,327a4.6,4.6,0,0,1-6.4,0,4.6,4.6,0,0,1-1.3-3.2,4.5,4.5,0,0,1,7.7-3.2,4.7,4.7,0,0,1,0,6.4Zm40.8,25.1a4.7,4.7,0,0,1-2.5,2.5,5,5,0,0,1-3.4,0,4.6,4.6,0,0,1-2.5-5.9,4.5,4.5,0,0,1,5.9-2.4h0a4.5,4.5,0,0,1,2.5,2.4,5,5,0,0,1,0,3.4Zm93.9-3.4a4.7,4.7,0,0,1-2.4,5.9,5.3,5.3,0,0,1-3.5,0,4.2,4.2,0,0,1-2.4-2.5,4.4,4.4,0,0,1,2.4-5.8h0a3.8,3.8,0,0,1,1.7-.4A4.6,4.6,0,0,1,289,348.7Zm-51.1,15.6a4.5,4.5,0,0,1-4.5-4.5,4.5,4.5,0,0,1,9,0A4.5,4.5,0,0,1,237.9,364.3Zm111.6-84.4a4.3,4.3,0,0,1,3.5,0,4.3,4.3,0,0,1,2.4,2.4,4,4,0,0,1,0,3.4,4.9,4.9,0,0,1-2.4,2.5,5.3,5.3,0,0,1-3.5,0,4.5,4.5,0,0,1-2.4-2.5,4.4,4.4,0,0,1,2.4-5.8Zm11.1-47.4a4.6,4.6,0,1,1-4.5,4.6,4.6,4.6,0,0,1,4.5-4.6Zm-39.1-85.4a4,4,0,0,1,3.1-1.3,4.4,4.4,0,0,1,4.5,4.5,4.4,4.4,0,0,1-1.3,3.2,4.6,4.6,0,0,1-3.2,1.3,4.4,4.4,0,0,1-3.1-1.3A4.5,4.5,0,0,1,321.5,147.1Zm6.3,173.5a4.4,4.4,0,0,1,1.3,3.2,4.4,4.4,0,0,1-4.5,4.5,4,4,0,0,1-3.1-1.3,4.5,4.5,0,0,1,0-6.4,4.4,4.4,0,0,1,3.1-1.3,4.6,4.6,0,0,1,3.2,1.3Z" fill="#fff"/><path d="M313.8,237.1a12.5,12.5,0,1,0-12.5,12.4A12.5,12.5,0,0,0,313.8,237.1Zm-17,0a4.6,4.6,0,0,1,4.5-4.6,4.6,4.6,0,0,1,0,9.1A4.6,4.6,0,0,1,296.8,237.1Z" fill="#fff"/><path d="M162,237.1a12.4,12.4,0,1,0,12.4-12.5A12.4,12.4,0,0,0,162,237.1Zm16.9,0a4.5,4.5,0,1,1-4.5-4.6A4.5,4.5,0,0,1,178.9,237.1Z" fill="#fff"/><path d="M184.2,183.4a12.5,12.5,0,0,0-3.6,8.8,12.4,12.4,0,1,0,24.8,0,12.5,12.5,0,0,0-3.6-8.8,12.3,12.3,0,0,0-17.6,0Zm13.3,8.8a4.5,4.5,0,1,1-9,0,4.6,4.6,0,0,1,1.3-3.2,4.6,4.6,0,0,1,6.4,0,4.6,4.6,0,0,1,1.3,3.2Z" fill="#fff"/><path d="M282.8,294.4a12.6,12.6,0,0,0,12.4-12.5,12.5,12.5,0,0,0-24.9,0,12.6,12.6,0,0,0,12.5,12.5Zm-3.2-15.7a4.4,4.4,0,0,1,3.2-1.3,4.4,4.4,0,0,1,3.1,1.3,4.5,4.5,0,0,1,1.4,3.2,4.3,4.3,0,0,1-1.4,3.2,4,4,0,0,1-3.1,1.3,4.1,4.1,0,0,1-3.2-1.3,4.3,4.3,0,0,1-1.4-3.2,4.5,4.5,0,0,1,1.4-3.2Z" fill="#fff"/><path d="M285.9,195.4a4.4,4.4,0,0,1-3.1,1.3,4.6,4.6,0,0,1-4.6-4.5,4.3,4.3,0,0,1,1.4-3.2,4,4,0,0,0,0-5.6,3.9,3.9,0,0,0-5.6,0,12.2,12.2,0,0,0-3.7,8.8,12.4,12.4,0,0,0,21.2,8.8,4,4,0,1,0-5.6-5.6Z" fill="#fff"/><path d="M193,294.4a12.3,12.3,0,0,0,8.8-3.7,4,4,0,1,0-5.6-5.6,4.6,4.6,0,0,1-6.4,0,4.6,4.6,0,0,1-1.3-3.2,4.8,4.8,0,0,1,1.3-3.2,3.9,3.9,0,0,0,0-5.6,4,4,0,0,0-5.6,0,12.7,12.7,0,0,0-3.6,8.8A12.5,12.5,0,0,0,193,294.4Z" fill="#fff"/><path d="M237.9,199.2a12.5,12.5,0,1,0,12.4,12.5A12.5,12.5,0,0,0,237.9,199.2Zm0,17a4.5,4.5,0,0,1-4.5-4.5,4.5,4.5,0,0,1,9,0A4.5,4.5,0,0,1,237.9,216.2Z" fill="#fff"/><path d="M237.9,250a12.5,12.5,0,1,0,12.4,12.4A12.5,12.5,0,0,0,237.9,250Zm0,16.9a4.5,4.5,0,0,1-4.5-4.5,4.5,4.5,0,0,1,9,0A4.5,4.5,0,0,1,237.9,266.9Z" fill="#fff"/><path d="M275.7,237.1a12.5,12.5,0,1,0-12.4,12.4A12.5,12.5,0,0,0,275.7,237.1Zm-12.4,4.5a4.6,4.6,0,0,1,0-9.1,4.6,4.6,0,0,1,0,9.1Z" fill="#fff"/><path d="M224.9,237.1a12.4,12.4,0,1,0-12.4,12.4A12.5,12.5,0,0,0,224.9,237.1Zm-12.4,4.5a4.6,4.6,0,1,1,4.5-4.5A4.5,4.5,0,0,1,212.5,241.6Z" fill="#fff"/><path d="M212.5,215.6h0a4,4,0,1,0-4-3.9,4,4,0,0,0,4,3.9Z" fill="#fff"/><path d="M212.5,266.4a4,4,0,1,0-4-4,4,4,0,0,0,4,4Z" fill="#fff"/><path d="M259.3,211.7a3.9,3.9,0,0,0,3.9,3.9h.1a4,4,0,0,0,3.9-3.9,4,4,0,0,0-4-4,3.9,3.9,0,0,0-3.9,4Z" fill="#fff"/><path d="M213.6,182.4a4,4,0,0,0,1.5-.3h0a4,4,0,0,0,2.2-5.2,4,4,0,0,0-5.2-2.1,3.9,3.9,0,0,0-2.2,5.1A4,4,0,0,0,213.6,182.4Z" fill="#fff"/><path d="M295,209.1a4,4,0,0,0-2.1,5.2,3.9,3.9,0,0,0,3.6,2.4l1.5-.3h.1a4,4,0,0,0,2.1-5.2,4,4,0,0,0-5.2-2.1Z" fill="#fff"/><path d="M179.2,265.3a3.7,3.7,0,0,0,1.5-.3h.1a4,4,0,0,0-3.1-7.3,4,4,0,0,0,1.5,7.6Z" fill="#fff"/><path d="M260.6,292a4,4,0,0,0,3.1,7.4h0a3.8,3.8,0,0,0,2.1-5.1,4,4,0,0,0-5.2-2.2Z" fill="#fff"/><path d="M263.2,258.5a4,4,0,0,0,0,7.9h.1a4,4,0,1,0-.1-7.9Z" fill="#fff"/><path d="M175.6,211.3a3.8,3.8,0,0,0,2.1,5.1l1.5.3a3.9,3.9,0,0,0,3.7-2.4h0a3.9,3.9,0,0,0-2.1-5.2,4,4,0,0,0-5.2,2.2Z" fill="#fff"/><path d="M263.7,174.7a4,4,0,0,0-3,7.4,4,4,0,0,0,1.5.3,3.8,3.8,0,0,0,3.6-2.5h.1a4.1,4.1,0,0,0-2.2-5.2Z" fill="#fff"/><path d="M212.1,299.4a4,4,0,0,0,1.5.3,3.8,3.8,0,0,0,3.6-2.5h.1a4,4,0,1,0-5.2,2.2Z" fill="#fff"/><path d="M300.2,262.9h0A3.9,3.9,0,1,0,295,265a4,4,0,0,0,5.2-2.1Z" fill="#fff"/></svg>