<svg xmlns="http://www.w3.org/2000/svg" width="166.9mm" height="166.9mm" viewBox="0 0 473.1 473.1"><circle cx="236.6" cy="237.1" r="227.1"/><path d="M313.7,330.6l-6.6-7.2c-4.7-5.1-11.5-9.6-8.1-18.1s12.5-7.6,20.1-7.6c64.1.3,56.4-7.2,56.8,57.2,0,7.7,1.4,16.3-8.1,19.8s-13.6-3.3-17.9-8.7c-8.3-10.8-14.8-11-26.7-2.8-93.5,64.6-220,11.4-240.9-100.4-2.2-11.8-4-23.5,10.4-26.7s17.5,8.6,20.1,20c14.4,65.4,65.1,106.2,128.5,103.8A113.8,113.8,0,0,0,313.7,330.6Z" fill="#fff"/><path d="M156.7,139.7l7.3,7.7c4.6,5.2,11.6,9.7,8.1,18.1S161,173,153.8,173H114.9c-12.6.1-19.6-5.5-19.6-18.5-.1-14.9.1-29.9-.1-44.8-.1-6.4,1.7-11.6,8.1-13.9s10.8.7,13.6,5c11.7,17.6,22.5,11.8,37.4,2.4,93.9-59.4,218.1-1.6,235.4,108.5,1.8,11.2,0,20.3-11.6,22.8s-17.2-5.4-18.9-16.6c-10.8-69.4-71.1-110.4-129.8-107.1C202.3,112.3,177.9,121.1,156.7,139.7Z" fill="#fff"/><path d="M222.6,197.8c0,18.2,13.5,22.6,24.3,29.2,24.7,15,32.1,29.2,27.9,54.2-1.6,10.2-6.5,18.5-14.9,24.1s-22.9,7.1-20.6,23.5c.4,3.2-4,4.4-7.6,4s-6.2-3.8-5.9-6.7c1.2-11.9-7-14.5-15.6-18.2-10.6-4.7-16.3-14.3-20-25.2-2.7-7.9-1.3-14.3,6.7-17.8s15.6-2.2,19.7,6.3,5.5,18.4,17.5,17.6c7.5-.5,11.1-6.5,12.1-13.3,1.7-11.5-3.1-20.2-13-26.1-6.1-3.6-12.5-6.8-18.7-10.3-16.5-9.4-22.8-24-21.8-42.4s8.6-30.1,25.1-35.7c8.7-3,10.7-7.8,9.9-15.8-.5-5.2,2.1-9.1,7.7-8.9s8.6,3.9,7.7,9.1c-1.9,10.9,4.9,14.4,12.9,18.3s11.9,9.8,15,17.2,7.9,17.9-3.4,23.6-18.6.4-22.6-10.6c-2.3-6.3-5.1-13-13.2-11.4S223.3,192.7,222.6,197.8Z" fill="#fff"/></svg>