<?xml version="1.0" encoding="utf-8"?>
<!-- Generator: Adobe Illustrator 25.1.0, SVG Export Plug-In . SVG Version: 6.00 Build 0)  -->
<svg version="1.1" id="Layer_1" xmlns="http://www.w3.org/2000/svg" xmlns:xlink="http://www.w3.org/1999/xlink" x="0px" y="0px"
	 width="473.1px" height="473.1px" viewBox="0 0 473.1 473.1" style="enable-background:new 0 0 473.1 473.1;" xml:space="preserve"
	>
<style type="text/css">
	.st0{fill:#FFFFFF;}
</style>
<path d="M236.5,0c-93.4,0-169,75.7-169,169c0,151.7,136.1,277.9,164.1,302.2c2.9,2.5,7.1,2.5,10,0c28-24.3,164.1-150.5,164.1-302.2
	C405.6,75.7,329.9,0,236.5,0z"/>
<circle class="st0" cx="236.6" cy="169.4" r="123.1"/>
<path d="M368,191.2c-12.6,0-25.2,0.1-37.8-0.2c-3.4-0.1-5,1.2-6.4,3.8c-6.1,11.1-12.4,22-18.4,33.1c-2.3,4.1-5.3,7.1-10.5,6.8
	c-5.3-0.3-7.7-3.6-9.3-8.1c-4.4-12.6-9.1-25.1-13.7-37.6c-0.6-1.5-0.8-3.2-2.3-4.4c-4.5,10-9.1,19.9-13.4,29.9
	c-2.1,4.9-5.3,8.2-11.2,7.4c-5.8-0.8-7.9-4.7-8.7-9.9c-3.8-22.8-7.8-45.6-11.7-68.5c-0.3-1.8-0.5-3.6-2-5.4
	c-5,37.1-9.9,74-14.9,110.9c-0.3,2-0.7,4-1,6.1c-0.7,5.2-3.8,8.3-9.2,8.6c-5.9,0.3-9.2-3.1-10.3-8.3c-2.4-11.2-4.5-22.5-6.8-33.7
	c-3.9-19.2-7.8-38.3-12-58.8c-4.1,8-7.7,14.7-11,21.5c-2.2,4.6-5.7,6.9-11.1,6.9c-11.5-0.1-23-0.2-34.5,0.1c-3.5,0.1-4.2-1-4.3-4.1
	c-0.4-14.4-0.3-15.6,14.8-14.1c15.1,1.5,23.5-3.1,28-16.7c2.8-8.3,8-15.8,11.8-23.8c2.3-4.8,5.1-8.7,11.5-8.1
	c6.8,0.7,8.3,5.7,9.4,10.9c3.6,18.1,7.2,36.2,10.9,54.2c0.4,1.8,0.9,3.5,1.8,7c2.9-21.1,5.6-40.6,8.2-60.1c2.7-20.1,5.4-40.2,8-60.3
	c0.7-5.4,3.7-8.8,9.6-8.9c5.9-0.1,9.1,3.1,10,8.5c5.2,29,10.3,58.1,15.5,87.1c1,5.4,1.9,10.8,3.2,17.6c4-8.9,7.6-16.4,10.9-24.1
	c1.9-4.6,4.8-8,10.3-7.9c5.5,0.2,8.1,3.6,9.8,8.4c5.2,14.7,10.6,29.4,16.1,44.5c3.2-2.2,4.2-5.6,5.8-8.4c14.1-24.1,7-19.7,35.2-20.1
	c10-0.1,20,0,29.9,0.1C368,178.9,368,185.1,368,191.2z"/>
</svg>
