<?xml version="1.0" encoding="utf-8"?>
<!-- Generator: Adobe Illustrator 25.0.0, SVG Export Plug-In . SVG Version: 6.00 Build 0)  -->
<svg version="1.1" id="Layer_1" xmlns="http://www.w3.org/2000/svg" xmlns:xlink="http://www.w3.org/1999/xlink" x="0px" y="0px"
	 width="222.8px" height="35.4px" viewBox="0 0 222.8 35.4" style="enable-background:new 0 0 222.8 35.4;" xml:space="preserve">
<style type="text/css">
	.st0{fill:#FFFFFF;}
	.st1{fill:#D2D2D2;}
</style>
<path class="st0" d="M33.3,34.6H28l-0.5-3.9c-0.9,1.4-2.3,2.5-3.8,3.3c-1.9,0.9-4,1.3-6.2,1.3c-4.5,0.1-8.9-1.7-12-4.9
	C2.3,27.3,0.7,23,0.7,17.7S2.4,8.2,5.8,4.9C9,1.7,13.4-0.1,18,0c4.2,0,7.6,1,10.2,3c2.5,1.9,4.4,4.5,5.4,7.5l-6.4,2.2
	c-0.5-1.8-1.6-3.4-3.1-4.6c-1.7-1.4-3.9-2-6.1-1.9c-2.8,0-5.5,1-7.5,3c-2.1,2-3.2,4.8-3.2,8.6c-0.1,3.1,1,6.2,3.1,8.6
	c2,2,4.8,3.1,7.7,3c2.3,0.1,4.7-0.6,6.5-2.1c1.3-1.2,2.2-2.7,2.6-4.5H16.4V17h16.9V34.6z"/>
<path class="st0" d="M58.9,30.9V19.3c0.1-2.4-0.8-4.7-2.5-6.5c-1.7-1.6-4.3-2.5-7.8-2.5c-2.6-0.1-5.1,0.7-7.1,2.4
	c-1.7,1.3-2.8,3.2-3,5.4l5.6,1.2c0.2-2.2,2.1-3.9,4.3-3.8h0.1c1.1-0.1,2.1,0.2,3,0.8c0.7,0.5,1,1.3,1,2.2c0,1-0.6,1.5-1.8,1.7
	l-5.8,0.9c-1.9,0.2-3.6,1-5,2.3c-1.4,1.2-2.1,3-2,4.8c0,1.9,0.8,3.7,2.2,5c1.6,1.4,3.7,2.2,5.9,2.1c3.1,0,5.5-1.1,7-3.5
	c0,1,0,1.9,0.2,2.9h5.9C59,33.4,58.9,32.1,58.9,30.9z M52.6,25.1c0,2-0.5,3.4-1.4,4.2c-1.1,0.9-2.4,1.3-3.8,1.3
	c-0.8,0-1.6-0.3-2.2-0.8c-0.6-0.5-0.9-1.2-0.8-2c0-1.7,0.9-2.7,2.9-2.9l5.3-0.9V25.1z"/>
<path class="st0" d="M111.9,13.6c-2-2.2-4.9-3.3-8.5-3.3c-3.1,0-6,1.2-8.2,3.5c-2.3,2.4-3.5,5.6-3.4,8.9c0,3.9,1.1,7,3.5,9.2
	c2.3,2.3,5.4,3.5,8.7,3.5c2.5,0.1,4.9-0.6,6.9-2.1c1.8-1.3,3.2-3.2,3.8-5.4l-5.3-1.6c-0.7,2.3-3,3.8-5.4,3.6c-1.5,0-3-0.5-4.1-1.5
	c-1.2-1-1.8-2.4-1.8-3.9h16.7v-1.9C115,18.7,114,15.8,111.9,13.6z M98.3,20.2c0.1-1.2,0.6-2.4,1.5-3.3c1-0.9,2.4-1.4,3.8-1.4
	c1.4-0.1,2.8,0.3,3.8,1.3c0.9,0.9,1.4,2.1,1.5,3.4H98.3z"/>
<path class="st0" d="M128,4.1v7h4.7v5.7H128v9.9c-0.1,0.7,0.1,1.5,0.6,2.1c0.6,0.4,1.3,0.6,2.1,0.6c0.7,0.1,1.3,0,2-0.2v5.3
	c-1.1,0.4-2.4,0.6-3.6,0.6c-2,0.1-4-0.6-5.5-2c-1.4-1.4-2.1-3.3-2-5.3V16.7h-4.3V11h1.2c1,0.1,2-0.3,2.8-1c0.6-0.8,0.9-1.7,0.9-2.7
	V4.1H128z"/>
<path class="st0" d="M145.8,4.1v7h4.7v5.7h-4.7v9.9c-0.1,0.7,0.1,1.5,0.6,2.1c0.6,0.4,1.3,0.6,2.1,0.6c0.7,0.1,1.3,0,2-0.2v5.3
	c-1.1,0.4-2.4,0.6-3.6,0.6c-2,0.1-4-0.6-5.5-2c-1.4-1.4-2.1-3.3-2-5.3V16.7h-4.2V11h1.2c1,0.1,2-0.3,2.7-1c0.6-0.8,0.9-1.7,0.9-2.7
	V4.1H145.8z"/>
<path class="st0" d="M174,13.6c-2.1-2.2-4.9-3.3-8.6-3.3c-3.1,0-6,1.3-8.1,3.5c-2.3,2.3-3.6,5.6-3.5,8.9c0,3.9,1.2,7,3.6,9.2
	c2.3,2.3,5.4,3.5,8.6,3.5c2.5,0.1,4.9-0.6,7-2.1c1.8-1.3,3.1-3.2,3.8-5.4l-5.4-1.6c-0.8,2.4-2.6,3.6-5.3,3.6c-1.5,0-3-0.5-4.2-1.5
	c-1.1-1-1.7-2.4-1.8-3.9h16.8v-0.3c0-0.2,0.1-0.5,0.1-0.8v-0.8C177,18.7,176,15.8,174,13.6z M160.2,20.2c0.3-2.7,2.6-4.7,5.3-4.7
	c1.4-0.1,2.8,0.4,3.9,1.3c0.9,0.9,1.4,2.1,1.4,3.4H160.2z"/>
<path class="st0" d="M200.3,13.6c-2-2.2-4.9-3.3-8.5-3.3c-3.1,0-6,1.2-8.2,3.5c-2.3,2.4-3.5,5.6-3.4,8.9c0,3.9,1.1,7,3.5,9.2
	c2.3,2.3,5.4,3.5,8.7,3.5c2.5,0.1,4.9-0.6,6.9-2.1c1.8-1.3,3.2-3.2,3.8-5.4l-5.3-1.6c-0.7,2.3-3,3.8-5.4,3.6c-1.5,0-3-0.5-4.1-1.5
	s-1.8-2.4-1.9-3.9h16.8v-1.9C203.4,18.7,202.4,15.8,200.3,13.6z M186.7,20.2c0.1-1.2,0.6-2.4,1.5-3.3c1-0.9,2.4-1.4,3.8-1.4
	c1.4-0.1,2.8,0.3,3.8,1.3c0.9,0.9,1.4,2.1,1.5,3.4H186.7z"/>
<path class="st0" d="M222.8,11v6.5c-0.6-0.2-1.3-0.2-1.9-0.2c-1.6-0.1-3.2,0.5-4.5,1.5c-1.1,1.1-1.6,2.8-1.6,5.2v10.7h-6.4V11.1h6.2
	v3.5c1.1-2.4,3.4-3.7,6.7-3.7L222.8,11z"/>
<path class="st1" d="M78.3,35.5h-5.6c-5.5,0-9.9-4.5-9.9-9.9V12.9c0-1.6,1.3-2.8,2.8-2.8h12.6c5.5,0,9.9,4.5,9.9,9.9v5.6
	C88.3,31,83.8,35.5,78.3,35.5z"/>
<g>
	<path d="M65.4,21.9c1.2-1.1,2.3-2.2,3.4-3.2c-1.4-2.4-4-3.7-5-6.5c4,0,7.8,0,11.5,0c0.3,0,0.6,0.2,0.8,0.3c2.8,3.1,5.6,6.2,8.6,9.5
		c-1.2,1.1-2.4,2.2-3.6,3.4c1.1,2.3,3.6,3.6,4.2,6.4c-4,0-7.7,0-11.4,0c-0.3,0-0.8-0.2-0.9-0.4C70.5,28.2,68,25,65.4,21.9z
		 M66.7,13.8c2.3,2.5,4.2,4.6,6.2,6.8c0.2,0.2,0.5,0.5,0.9,0.5c2.6,0,5.1,0,8,0c-2.3-2.5-4.3-4.8-6.5-7.1c-0.1-0.1-0.4-0.2-0.5-0.2
		C72.2,13.8,69.6,13.8,66.7,13.8z M73.9,29.7c2.5-2.3,4.9-4.6,7.6-7c-1.9,0-3.6-0.1-5.1,0c-2.6,0.3-4.7-0.2-6.1-2.6
		c-0.1-0.1-0.2-0.1-0.4-0.2c-0.8,0.7-1.5,1.4-2.3,2.1C69.8,24.6,71.8,27.1,73.9,29.7z M76.1,30.1c2.4,0,4.3,0,6.6,0
		c-1.1-1.3-1.9-2.4-2.9-3.5C78.5,27.8,77.4,28.7,76.1,30.1z"/>
	<path class="st0" d="M66.7,13.8c2.9,0,5.4,0,8,0c0.2,0,0.4,0.1,0.5,0.2c2.1,2.3,4.1,4.6,6.5,7.1c-2.8,0-5.4,0-8,0
		c-0.3,0-0.6-0.3-0.9-0.5C71,18.4,68.9,16.2,66.7,13.8z"/>
	<path class="st0" d="M73.9,29.7c-2.2-2.6-4.1-5.1-6.3-7.7c0.8-0.7,1.5-1.4,2.3-2.1c0.2,0.1,0.3,0.1,0.4,0.2
		c1.4,2.4,3.6,2.8,6.1,2.6c1.5-0.2,3.1,0,5.1,0C78.9,25.1,76.5,27.4,73.9,29.7z"/>
	<path class="st0" d="M76.1,30.1c1.3-1.2,2.5-2.3,3.8-3.5c1,1.1,1.8,2.2,2.8,3.5C80.4,30.1,78.3,30.1,76.1,30.1z"/>
</g>
</svg>
