<?xml version="1.0" encoding="utf-8"?>
<!-- Generator: Adobe Illustrator 25.0.0, SVG Export Plug-In . SVG Version: 6.00 Build 0)  -->
<svg version="1.1" id="Layer_1" xmlns="http://www.w3.org/2000/svg" xmlns:xlink="http://www.w3.org/1999/xlink" x="0px" y="0px"
	 width="279.8px" height="51.3px" viewBox="0 0 279.8 51.3" style="enable-background:new 0 0 279.8 51.3;" xml:space="preserve">
<style type="text/css">
	.st0{fill:#D2D2D2;}
	.st1{fill:#FFFFFF;}
</style>
<path class="st0" d="M31,51.1H19.8C8.9,51.1,0,42.2,0,31.3c0,0,0,0,0,0V5.8c0-3.1,2.5-5.6,5.6-5.6c0,0,0,0,0,0h25.2
	c10.9,0,19.8,8.9,19.8,19.8l0,0v11.2c0.2,10.8-8.4,19.6-19.2,19.8C31.3,51.1,31.1,51.1,31,51.1z"/>
<path d="M5.2,23.9l6.8-6.4C9.2,12.6,4,10,2,4.4h23c0.6,0.1,1.1,0.3,1.6,0.6l17.2,19c-2.4,2.2-4.8,4.4-7.2,6.8
	c2.2,4.6,7.2,7.2,8.4,12.8H22.2c-0.7,0-1.3-0.3-1.8-0.8C15.4,36.5,10.4,30.1,5.2,23.9z M7.8,7.6l12.4,13.6c0.4,0.6,1.1,0.9,1.8,1h16
	c-4.6-5-8.6-9.6-13-14.2c-0.3-0.2-0.6-0.4-1-0.4H7.8z M22.2,39.5c5-4.6,9.8-9.2,15.2-14c-3.8,0-7.2-0.2-10.2,0
	c-5.2,0.6-9.4-0.4-12.2-5.2l-0.8-0.4l-4.6,4.2C14,29.3,18,34.3,22.2,39.5z M26.6,40.3h13.2c-2.2-2.6-3.8-4.8-5.8-7
	C31.4,35.7,29.2,37.5,26.6,40.3z"/>
<path class="st1" d="M7.8,7.6h16c0.4,0,0.7,0.1,1,0.4c4.2,4.6,8.2,9.2,13,14.2h-16c-0.6,0-1.2-0.6-1.8-1
	C16.4,16.9,12.2,12.4,7.8,7.6z"/>
<path class="st1" d="M22.2,39.5C17.8,34.3,14,29.3,9.6,24.1l4.6-4.2l0.8,0.4c2.8,4.8,7.2,5.6,12.2,5.2c3-0.4,6.2,0,10.2,0
	C32.2,30.3,27.4,34.9,22.2,39.5z"/>
<path class="st1" d="M26.6,40.3l7.6-7c2,2.2,3.6,4.4,5.6,7H26.6z"/>
<path class="st1" d="M98.8,42.3h-5.3l-0.4-3.8c-0.9,1.4-2.2,2.5-3.8,3.2c-1.9,0.9-3.9,1.4-6,1.3c-4.4,0.1-8.7-1.6-11.8-4.7
	c-3.3-3.2-4.9-7.4-4.9-12.6c-0.3-9.3,6.9-17.1,16.2-17.4c0.3,0,0.6,0,0.9,0c3.6-0.2,7.1,0.9,10,3c2.5,1.8,4.3,4.4,5.2,7.3l-6.2,2.2
	c-0.5-1.8-1.6-3.3-3-4.5c-1.7-1.4-3.8-2-6-1.9c-2.7,0-5.4,1-7.4,2.9c-2.1,1.9-3.1,4.7-3.1,8.4s1,6.4,3,8.4c2,2,4.7,3.1,7.5,3
	c2.8,0,4.9-0.7,6.3-2.1c1.3-1.2,2.2-2.7,2.6-4.4H82.1V25h16.6v17.3H98.8z"/>
<path class="st1" d="M123.9,38.6V27.3c0.1-2.3-0.8-4.6-2.4-6.3c-1.6-1.6-4.2-2.5-7.6-2.5c-2.5-0.1-5,0.7-7,2.3
	c-1.6,1.3-2.7,3.2-3,5.3l5.5,1.2c0.1-1,0.5-2,1.3-2.7c0.9-0.7,2-1.1,3.1-1.1c1-0.1,2,0.2,2.9,0.8c0.7,0.5,1,1.4,1,2.2
	c0,0.9-0.6,1.5-1.7,1.6l-5.7,0.8c-1.9,0.2-3.6,1-5,2.3c-1.3,1.2-2,2.9-1.9,4.7c0,1.9,0.8,3.7,2.2,4.9c1.6,1.4,3.7,2.2,5.8,2.1
	c2.7,0.2,5.3-1.1,6.8-3.4c0,0.9,0.1,1.9,0.2,2.8h5.7C124,41.2,123.9,40,123.9,38.6z M117.8,32.9c0.1,1.5-0.4,3-1.4,4.1
	c-1,0.8-2.3,1.2-3.6,1.2c-0.8,0-1.6-0.3-2.2-0.8c-0.5-0.5-0.8-1.2-0.8-1.9c0-1.7,1-2.6,2.9-2.9l5.2-0.8v1.1L117.8,32.9z"/>
<polygon class="st1" points="147.7,42.3 128.6,42.3 128.6,36.8 139.5,24.6 128.8,24.6 128.8,19.2 147.5,19.2 147.5,24.4 136.2,36.8 
	147.7,36.8 "/>
<path class="st1" d="M170.7,21.7c-2.2-2.2-5.3-3.4-8.4-3.2c-3,0-5.9,1.2-8,3.4c-2.3,2.3-3.5,5.5-3.4,8.8
	c-0.3,6.5,4.7,12.1,11.2,12.4c0.3,0,0.5,0,0.8,0c2.4,0.1,4.8-0.7,6.8-2.1c1.8-1.3,3.1-3.2,3.7-5.3l-5.2-1.6
	c-0.8,2.3-2.6,3.5-5.3,3.5c-1.5,0-2.9-0.5-4-1.5c-1.1-1-1.7-2.3-1.8-3.8h16.5v-1.9C173.7,26.7,172.7,23.8,170.7,21.7z M157.2,28.1
	c0.1-1.2,0.6-2.3,1.5-3.1c1-0.9,2.3-1.5,3.7-1.4c1.4-0.1,2.8,0.4,3.8,1.3c0.8,0.9,1.3,2,1.4,3.2H157.2z"/>
<path class="st1" d="M186.4,12.2v6.9h4.7v5.5h-4.7v9.7c-0.1,0.8,0.2,1.5,0.7,2.1c0.6,0.5,1.3,0.7,2.1,0.6l1.9-0.2v5.2
	c-1.1,0.4-2.3,0.6-3.5,0.6c-2,0.1-3.9-0.6-5.4-1.9c-1.4-1.4-2.1-3.3-2-5.2V24.7H176v-5.5h1.2c1,0.1,2-0.3,2.7-1
	c0.6-0.8,0.9-1.7,0.9-2.7v-3.2H186.4z"/>
<path class="st1" d="M204,12.2v6.9h4.7v5.5H204v9.7c-0.1,0.8,0.2,1.5,0.7,2.1c0.6,0.5,1.3,0.7,2.1,0.6l1.9-0.2v5.2
	c-1.1,0.4-2.3,0.6-3.5,0.6c-2,0.1-3.9-0.6-5.4-1.9c-1.4-1.4-2.1-3.3-2-5.2V24.7h-4.2v-5.5h1.2c1,0.1,2-0.3,2.7-1
	c0.6-0.8,0.9-1.7,0.9-2.7v-3.2H204z"/>
<path class="st1" d="M231.7,21.7c-2.2-2.2-5.3-3.4-8.4-3.2c-3,0-5.9,1.2-8,3.4c-2.3,2.3-3.5,5.5-3.4,8.8
	c-0.3,6.5,4.7,12.1,11.2,12.4c0.3,0,0.5,0,0.8,0c2.4,0.1,4.8-0.7,6.8-2.1c1.8-1.3,3.1-3.2,3.7-5.3l-5.2-1.6
	c-0.8,2.3-2.6,3.5-5.3,3.5c-1.5,0-2.9-0.5-4-1.5c-1.1-1-1.7-2.3-1.8-3.8h16.5v-1.9C234.7,26.7,233.7,23.8,231.7,21.7z M218.2,28.1
	c0.1-1.2,0.6-2.3,1.5-3.1c1-0.9,2.3-1.5,3.7-1.4c1.4-0.1,2.8,0.4,3.8,1.3c0.8,0.9,1.3,2,1.4,3.2H218.2z"/>
<path class="st1" d="M257.7,21.7c-2.2-2.2-5.3-3.4-8.4-3.2c-3,0-5.9,1.2-8,3.4c-2.3,2.3-3.5,5.5-3.4,8.8
	c-0.3,6.5,4.7,12.1,11.2,12.4c0.3,0,0.5,0,0.8,0c2.4,0.1,4.8-0.7,6.8-2.1c1.8-1.3,3.1-3.2,3.7-5.3l-5.2-1.6
	c-0.8,2.3-2.6,3.5-5.3,3.5c-1.5,0-2.9-0.5-4-1.5c-1.1-1-1.7-2.3-1.8-3.8h16.5v-1.9C260.7,26.7,259.7,23.8,257.7,21.7z M244.2,28.1
	c0.1-1.2,0.6-2.3,1.5-3.1c1-0.9,2.3-1.5,3.7-1.4c1.4-0.1,2.8,0.4,3.8,1.3c0.8,0.9,1.3,2,1.4,3.2H244.2z"/>
<path class="st1" d="M279.8,19.1v6.3l-1.9-0.2c-1.6-0.1-3.1,0.5-4.3,1.5c-1.1,1-1.6,2.7-1.6,5v10.6h-6.3V19.2h6.1v3.4
	c1.1-2.4,3.3-3.6,6.6-3.6L279.8,19.1z"/>
</svg>
