<?xml version="1.0" encoding="utf-8"?>
<!-- Generator: Adobe Illustrator 25.0.0, SVG Export Plug-In . SVG Version: 6.00 Build 0)  -->
<svg version="1.1" id="Layer_1" xmlns="http://www.w3.org/2000/svg" xmlns:xlink="http://www.w3.org/1999/xlink" x="0px" y="0px"
	 width="291.4px" height="61.8px" viewBox="0 0 291.4 61.8" style="enable-background:new 0 0 291.4 61.8;" xml:space="preserve">
<style type="text/css">
	.st0{fill:#D2D2D2;}
	.st1{fill:#FFFFFF;}
</style>
<path class="st0" d="M37.8,61.6H24.3c-13.2,0-23.9-10.8-23.9-23.9l0,0V6.8C0.3,3,3.3,0,7.1,0l0,0h30.5c13.2,0,23.9,10.8,23.9,23.9
	l0,0v13.5c0.2,13.1-10.2,23.7-23.2,23.9C38.2,61.6,37.9,61.6,37.8,61.6z"/>
<path d="M6.6,28.7l8.2-7.7C11.4,15,5.1,11.9,2.7,5.1h27.8c0.7,0.1,1.3,0.4,1.9,0.7l20.8,23c-2.9,2.7-5.8,5.3-8.7,8.2
	c2.7,5.6,8.7,8.7,10.2,15.5H27.2c-0.8,0-1.6-0.4-2.2-1C18.9,43.9,12.9,36.2,6.6,28.7z M9.7,9l15,16.4c0.5,0.7,1.3,1.1,2.2,1.2h19.4
	c-5.6-6-10.4-11.6-15.7-17.2C30.2,9.2,29.8,9,29.3,9C29.3,9,9.7,9,9.7,9z M27.2,47.5c6-5.6,11.9-11.1,18.4-16.9
	c-4.6,0-8.7-0.2-12.3,0c-6.3,0.7-11.4-0.5-14.8-6.3l-1-0.5l-5.6,5.1C17.2,35.2,22.1,41.2,27.2,47.5z M32.5,48.5h16
	c-2.7-3.1-4.6-5.8-7-8.5C38.3,42.9,35.6,45.1,32.5,48.5z"/>
<path class="st1" d="M9.7,9h19.4c0.5,0,0.8,0.1,1.2,0.5C35.4,15,40.2,20.6,46,26.6H26.7c-0.7,0-1.5-0.7-2.2-1.2
	C20.1,20.2,15.1,14.8,9.7,9z"/>
<path class="st1" d="M27.2,47.5c-5.3-6.3-9.9-12.3-15.2-18.6l5.6-5.1l1,0.5c3.4,5.8,8.7,6.8,14.8,6.3c3.6-0.5,7.5,0,12.3,0
	C39.3,36.4,33.5,42,27.2,47.5z"/>
<path class="st1" d="M32.5,48.5l9.2-8.5c2.4,2.7,4.4,5.3,6.8,8.5H32.5z"/>
<path class="st1" d="M109.7,48.5h-5.3l-0.4-3.8c-0.9,1.4-2.2,2.5-3.8,3.2c-1.9,0.9-3.9,1.4-6,1.3c-4.4,0.1-8.7-1.6-11.8-4.7
	c-3.3-3.2-4.9-7.4-4.9-12.6c-0.3-9.3,6.9-17.1,16.2-17.4c0.3,0,0.6,0,0.9,0c3.6-0.2,7.1,0.9,10,3c2.5,1.8,4.3,4.4,5.2,7.3l-6.2,2.2
	c-0.5-1.8-1.6-3.3-3-4.5c-1.7-1.4-3.8-2-6-1.9c-2.7,0-5.4,1-7.4,2.9c-2.1,1.9-3.1,4.7-3.1,8.4s1,6.4,3,8.4s4.7,3.1,7.5,3
	c2.8,0,4.9-0.7,6.3-2.1c1.3-1.2,2.2-2.7,2.6-4.4H93v-5.6h16.6v17.3H109.7z"/>
<path class="st1" d="M134.8,44.8V33.5c0.1-2.3-0.8-4.6-2.4-6.3c-1.6-1.6-4.2-2.5-7.6-2.5c-2.5-0.1-5,0.7-7,2.3
	c-1.6,1.3-2.7,3.2-3,5.3l5.5,1.2c0.1-1,0.5-2,1.3-2.7c0.9-0.7,2-1.1,3.1-1.1c1-0.1,2,0.2,2.9,0.8c0.7,0.5,1,1.4,1,2.2
	c0,0.9-0.6,1.5-1.7,1.6l-5.7,0.8c-1.9,0.2-3.6,1-5,2.3c-1.3,1.2-2,2.9-1.9,4.7c0,1.9,0.8,3.7,2.2,4.9c1.6,1.4,3.7,2.2,5.8,2.1
	c2.7,0.2,5.3-1.1,6.8-3.4c0,0.9,0.1,1.9,0.2,2.8h5.7C134.9,47.4,134.8,46.2,134.8,44.8z M128.7,39.1c0.1,1.5-0.4,3-1.4,4.1
	c-1,0.8-2.3,1.2-3.6,1.2c-0.8,0-1.6-0.3-2.2-0.8c-0.5-0.5-0.8-1.2-0.8-1.9c0-1.7,1-2.6,2.9-2.9l5.2-0.8v1.1L128.7,39.1z"/>
<polygon class="st1" points="158.6,48.5 139.5,48.5 139.5,43 150.4,30.8 139.7,30.8 139.7,25.4 158.4,25.4 158.4,30.6 147.1,43 
	158.6,43 "/>
<path class="st1" d="M181.6,27.9c-2.2-2.2-5.3-3.4-8.4-3.2c-3,0-5.9,1.2-8,3.4c-2.3,2.3-3.5,5.5-3.4,8.8
	c-0.3,6.5,4.7,12.1,11.2,12.4c0.3,0,0.5,0,0.8,0c2.4,0.1,4.8-0.7,6.8-2.1c1.8-1.3,3.1-3.2,3.7-5.3l-5.2-1.6
	c-0.8,2.3-2.6,3.5-5.3,3.5c-1.5,0-2.9-0.5-4-1.5s-1.7-2.3-1.8-3.8h16.5v-1.9C184.6,32.9,183.6,30,181.6,27.9z M168.1,34.3
	c0.1-1.2,0.6-2.3,1.5-3.1c1-0.9,2.3-1.5,3.7-1.4c1.4-0.1,2.8,0.4,3.8,1.3c0.8,0.9,1.3,2,1.4,3.2H168.1z"/>
<path class="st1" d="M197.3,18.4v6.9h4.7v5.5h-4.7v9.7c-0.1,0.8,0.2,1.5,0.7,2.1c0.6,0.5,1.3,0.7,2.1,0.6L202,43v5.2
	c-1.1,0.4-2.3,0.6-3.5,0.6c-2,0.1-3.9-0.6-5.4-1.9c-1.4-1.4-2.1-3.3-2-5.2V30.9h-4.2v-5.5h1.2c1,0.1,2-0.3,2.7-1
	c0.6-0.8,0.9-1.7,0.9-2.7v-3.2h5.6V18.4z"/>
<path class="st1" d="M214.9,18.4v6.9h4.7v5.5h-4.7v9.7c-0.1,0.8,0.2,1.5,0.7,2.1c0.6,0.5,1.3,0.7,2.1,0.6l1.9-0.2v5.2
	c-1.1,0.4-2.3,0.6-3.5,0.6c-2,0.1-3.9-0.6-5.4-1.9c-1.4-1.4-2.1-3.3-2-5.2V30.9h-4.2v-5.5h1.2c1,0.1,2-0.3,2.7-1
	c0.6-0.8,0.9-1.7,0.9-2.7v-3.2h5.6V18.4z"/>
<path class="st1" d="M242.6,27.9c-2.2-2.2-5.3-3.4-8.4-3.2c-3,0-5.9,1.2-8,3.4c-2.3,2.3-3.5,5.5-3.4,8.8
	c-0.3,6.5,4.7,12.1,11.2,12.4c0.3,0,0.5,0,0.8,0c2.4,0.1,4.8-0.7,6.8-2.1c1.8-1.3,3.1-3.2,3.7-5.3l-5.2-1.6
	c-0.8,2.3-2.6,3.5-5.3,3.5c-1.5,0-2.9-0.5-4-1.5s-1.7-2.3-1.8-3.8h16.5v-1.9C245.6,32.9,244.6,30,242.6,27.9z M229.1,34.3
	c0.1-1.2,0.6-2.3,1.5-3.1c1-0.9,2.3-1.5,3.7-1.4c1.4-0.1,2.8,0.4,3.8,1.3c0.8,0.9,1.3,2,1.4,3.2H229.1z"/>
<path class="st1" d="M268.6,27.9c-2.2-2.2-5.3-3.4-8.4-3.2c-3,0-5.9,1.2-8,3.4c-2.3,2.3-3.5,5.5-3.4,8.8
	c-0.3,6.5,4.7,12.1,11.2,12.4c0.3,0,0.5,0,0.8,0c2.4,0.1,4.8-0.7,6.8-2.1c1.8-1.3,3.1-3.2,3.7-5.3l-5.2-1.6
	c-0.8,2.3-2.6,3.5-5.3,3.5c-1.5,0-2.9-0.5-4-1.5s-1.7-2.3-1.8-3.8h16.5v-1.9C271.6,32.9,270.6,30,268.6,27.9z M255.1,34.3
	c0.1-1.2,0.6-2.3,1.5-3.1c1-0.9,2.3-1.5,3.7-1.4c1.4-0.1,2.8,0.4,3.8,1.3c0.8,0.9,1.3,2,1.4,3.2H255.1z"/>
<path class="st1" d="M290.7,25.3v6.3l-1.9-0.2c-1.6-0.1-3.1,0.5-4.3,1.5c-1.1,1-1.6,2.7-1.6,5v10.6h-6.3V25.4h6.1v3.4
	c1.1-2.4,3.3-3.6,6.6-3.6L290.7,25.3z"/>
</svg>
