<?xml version="1.0" encoding="utf-8"?>
<!-- Generator: Adobe Illustrator 25.0.0, SVG Export Plug-In . SVG Version: 6.00 Build 0)  -->
<svg version="1.1" id="Layer_1" xmlns="http://www.w3.org/2000/svg" xmlns:xlink="http://www.w3.org/1999/xlink" x="0px" y="0px"
	 width="473.1px" height="473.1px" viewBox="0 0 473.1 473.1" style="enable-background:new 0 0 473.1 473.1;" xml:space="preserve"
	>
<style type="text/css">
	.st0{fill:#FFFFFF;}
</style>
<circle cx="236.6" cy="237.1" r="227.1"/>
<path d="M205.4,168.2c10.8,1.8,17.7,7.4,17.2,18.4c-0.5,11-7.5,17-18.3,16.6s-17.2-7.1-16.8-18C187.9,174.3,195.3,169.2,205.4,168.2
	z"/>
<path d="M282.6,185.5c-1.4,11.2-7.3,17.9-18.1,17.7s-17.5-6.4-17.5-17.4c0-11,7.2-17.3,17.7-17.3
	C275.2,168.5,281.3,175.3,282.6,185.5z"/>
<path d="M223,290.3c-1.9,10.7-8.1,17.1-18.9,16.4s-17.2-7.2-16.6-18.2c0.6-11,7.7-16.8,18.5-16.3C216.8,272.7,222.2,279.7,223,290.3
	z"/>
<path d="M282.5,288.8c-0.9,11-6.8,17.8-17.4,18c-10.6,0.2-17.8-6-18.1-16.9s6.4-17.4,17.2-17.8S280.9,278.4,282.5,288.8z"/>
<path d="M175.4,220.2c11,0.9,17.3,6.8,17.1,17.7c-0.2,10.9-6.5,17.1-17.4,17c-10.9-0.1-17.2-6.6-17.1-17.4
	C158.1,226.7,164.6,220.9,175.4,220.2z"/>
<path d="M234.9,220.2c11.1,0.9,17.3,6.8,17.2,17.7c-0.1,10.9-6.6,17.1-17.5,17s-17.2-6.6-17.1-17.5
	C217.6,226.5,224.2,220.9,234.9,220.2z"/>
<path d="M294.3,255.1c-11-0.9-17.3-6.7-17.2-17.7c0.1-11,6.6-17.1,17.5-17s17.1,6.6,17.1,17.5C311.7,248.8,305,254.4,294.3,255.1z"
	/>
<path class="st0" d="M234.2,350c-34.9,0-69.8,0.1-104.8,0c-14.7,0-17.5-2.9-17.5-17.5c0-64,0-128.1-0.1-192.1
	c0-8.5,0.4-17.2,11-17.4c11.6-0.2,11.6,9.2,11.6,18c-0.1,58.2,0.2,116.4-0.3,174.6c-0.1,10.1,2.8,12.2,12.4,12.1
	c64-0.4,128.1-0.2,192.1-0.2c4.1,0,8.4,0,12.4,0.7c5.1,0.9,7.8,4.5,8.1,9.6c0.3,5.7-2.2,9.8-7.8,11.2c-3.6,0.9-7.4,0.9-11.1,0.9
	C304.9,350.1,269.5,350,234.2,350z"/>
<path class="st0" d="M320.2,184.2c-8.3,0-13.7,0-19.1,0c-6.9,0-11.2-3.6-11.7-10.3c-0.6-6.9,3.8-11.6,10.2-11.8
	c17-0.6,34.1-0.6,51.1,0c6.5,0.2,10.5,5,10.5,11.7c0.2,16.6,0.1,33.3,0.1,49.9c0,7.3-3.6,12.3-11,12.4c-8.1,0.1-11.5-5.3-11.4-13.2
	c0.1-7.4,0-14.9,0-25.6c-13.7,16.6-25.5,31.1-37.4,45.6c-2.6,3.2-5.5,6.3-7.8,9.7c-7,10.9-15.2,12.3-26.2,5.2
	c-10.8-6.9-22.7-12.2-33.6-18.9c-6.4-4-9.8-2.6-14.1,3.2c-15,20.4-30.6,40.4-46,60.5c-5.2,6.8-10.7,14.6-20.2,7.3
	c-8.7-6.8-3.2-13.9,1.8-20.4c18.5-24,37.2-47.9,55.3-72.3c6.6-8.8,12.9-9.9,22.1-4.3c12.4,7.5,25.4,14,38.1,21
	c3.4,1.9,6.1,3.6,9.5-0.7C293.1,217.4,305.9,201.8,320.2,184.2z"/>
</svg>
