<?xml version="1.0" encoding="utf-8"?>
<!-- Generator: Adobe Illustrator 25.1.0, SVG Export Plug-In . SVG Version: 6.00 Build 0)  -->
<svg version="1.1" id="Layer_1" xmlns="http://www.w3.org/2000/svg" xmlns:xlink="http://www.w3.org/1999/xlink" x="0px" y="0px"
	 width="454.1px" height="454.1px" viewBox="0 0 454.1 454.1" style="enable-background:new 0 0 454.1 454.1;" xml:space="preserve"
	>
<style type="text/css">
	.st0{fill:#FFFFFF;}
	.st1{fill:none;stroke:#FFFFFF;stroke-width:3.7266;stroke-miterlimit:10;}
</style>
<circle cx="227.1" cy="227.1" r="227.1"/>
<g>
	<path class="st0" d="M227,324.1c-42.3,0-84.6,0-126.9,0c-1.5,0-2-0.3-2-1.9c0.1-19.2,0.1-38.4,0-57.6c0-1.1,0.3-1.8,1.2-2.5
		c21.8-17.4,43.7-34.9,65.5-52.4c1-0.8,1.6-0.7,2.6,0.1c10.4,8.4,20.9,16.8,31.3,25.2c0.9,0.7,1.4,0.8,2.4,0
		c25.7-21.8,51.4-43.5,77-65.2c3-2.5,6-5.1,9-7.6c0.7-0.6,1.1-0.7,1.9,0c22,19.8,44,39.6,66,59.4c0.7,0.6,0.9,1.2,0.9,2.1
		c0,33,0,66,0,99c0,1.7-0.8,1.5-1.9,1.5C311.7,324.1,269.3,324.1,227,324.1z"/>
	<path class="st0" d="M172.8,168.6c0,15-12.1,27.1-27.1,27.2c-15,0-27.2-12.2-27.2-27.2c0-14.9,12.2-27.1,27.2-27
		C160.7,141.5,172.8,153.6,172.8,168.6z"/>
	<path class="st1" d="M342,277.7H111.9c-6.6,0-12-5.4-12-12V142c0-6.6,5.4-12,12-12H342c6.6,0,12,5.4,12,12v123.7
		C354,272.3,348.6,277.7,342,277.7z"/>
</g>
</svg>
