<svg xmlns="http://www.w3.org/2000/svg" width="166.9mm" height="166.9mm" viewBox="0 0 473.1 473.1"><circle cx="236.6" cy="237.1" r="227.1"/><path d="M165,361.8c77.7,47.7,179.4,4.5,202.9-84.8,2.5-9.3-1.3-29.3,13.8-25.5s3.6,20.4,1.2,30.4c-18,72.6-86.6,120.9-162.5,115.4-72.5-5.2-132.8-63.5-142.1-137.6-9.1-72.3,37.5-143.5,108-165.2,3.4-1,6.9-2.7,10.3-2.6,8.2.2,20.9-8.7,23.5,2.4,3.3,13.9-12.4,11-20.6,13.2-50.7,13.4-83.7,45.4-100.2,94.7-3,8.9-8.9,20.5,11,20.4,16.7-.1,14.9,12.4,8.8,22.8s-6.7,20.8,5.9,26.5,17.7-4.4,23.2-12.4,8.7-19.3,11.2-29.8c3.2-13.3,11.8-22.3,26-23.2a19.1,19.1,0,0,1,19.2,12c5.3,12.6-.1,22.9-9.9,30.6-16.3,12.7-18.7,21.8,1,35.7s13.2,45.7-8.2,62.5C180.6,352.8,172.7,356.9,165,361.8Z" fill="#fff"/><path d="M374.9,156.6c-4.8,42.9-31.5,79.4-62.1,113.3-9.1,10-22.2,6.5-30.6-3.8-21.9-27.1-42.8-55.1-53-89-9.4-31.5-3.1-60.4,22.4-82.7,22.7-19.9,49.5-24.6,77.3-12.4C358.5,95.1,373.1,119.4,374.9,156.6Z" fill="#fff"/><path d="M301.7,177.9c-17.5-1.7-27.8-10.2-27.7-27s9.8-26.7,26.6-26.5,24.6,9.8,25.4,25.1C326.8,166.4,316.6,175,301.7,177.9Z"/></svg>