<svg xmlns="http://www.w3.org/2000/svg" width="160.2mm" height="160.2mm" viewBox="0 0 454.2 454.2"><circle cx="227.1" cy="227.1" r="227.1"/><path d="M135.4,114.1A22.4,22.4,0,0,0,113,136.5v54.8L282.8,361.1h54.8A22.4,22.4,0,0,0,360,338.6V283.9L190.2,114.1Zm143.1,0c-15,0-22.5,18.1-11.9,28.7l64.7,64.7c10.6,10.6,28.7,3.1,28.7-11.9V136.5a22.4,22.4,0,0,0-22.4-22.4ZM128,262.8a16.9,16.9,0,0,0-15,16.8v59a22.4,22.4,0,0,0,22.4,22.5h59.1c15,0,22.5-18.2,11.9-28.8l-64.7-64.6A16.5,16.5,0,0,0,128,262.8Z" transform="translate(-9.5 -10)" fill="#fff"/></svg>