<?xml version="1.0" encoding="utf-8"?>
<!-- Generator: Adobe Illustrator 25.1.0, SVG Export Plug-In . SVG Version: 6.00 Build 0)  -->
<svg version="1.1" id="Layer_1" xmlns="http://www.w3.org/2000/svg" xmlns:xlink="http://www.w3.org/1999/xlink" x="0px" y="0px"
	 width="473.1px" height="473.1px" viewBox="0 0 473.1 473.1" style="enable-background:new 0 0 473.1 473.1;" xml:space="preserve"
	>
<style type="text/css">
	.st0{fill:#FFFFFF;}
</style>
<path d="M236.5,0c-93.4,0-169,75.7-169,169c0,151.7,136.1,277.9,164.1,302.2c2.9,2.5,7.1,2.5,10,0c28-24.3,164.1-150.5,164.1-302.2
	C405.6,75.7,329.9,0,236.5,0z"/>
<circle class="st0" cx="236.6" cy="169.4" r="123.1"/>
<path d="M262.7,247c0,14.4-11.7,26.1-26.1,26.1s-26.1-11.7-26.1-26.1v-78.4c0-14.4,11.7-26.1,26.1-26.1s26.1,11.7,26.1,26.1V247z"/>
<circle cx="236.6" cy="93.4" r="26.1"/>
</svg>
