<svg xmlns="http://www.w3.org/2000/svg" width="166.9mm" height="166.9mm" viewBox="0 0 473.1 473.1"><circle cx="236.6" cy="237.1" r="227.1"/><path d="M235.9,347.6l-7.5-.2-32.2-.5c-16.9-.2-30.7-7.2-40.8-20.4-13.8-18-15.5-37.8-5.5-58.1,8.5-17.1,22.9-26.5,41.7-29.1a81.4,81.4,0,0,1,8.6-.3h2.3a16.1,16.1,0,0,0,0-2.2c-1.5-25.6,20.3-52.9,47.2-56.8,22.4-3.3,41.3,3.5,55.5,21.8a47,47,0,0,1,8.8,16.5,1.4,1.4,0,0,0,1.8,1.2c4.9,0,9.8.2,14.7,0a51.1,51.1,0,0,1,27.5,7.3c22.9,12.9,34.2,32.8,33.5,58.9-.8,29.4-22.8,54.9-51.8,60.4-5.9,1.1-12.2,1-18.3,1.1-14.5.2-29,.1-43.5.2l-1.9.2Zm67.7-108.7c-.2-.6-.4-1.1-.5-1.5-1.2-3.8-2.5-7.6-3.6-11.4a40.5,40.5,0,0,0-18.9-24.9c-6.9-3.9-14.3-6.6-22.2-6A41.1,41.1,0,0,0,228,210.4c-5.3,6.5-8.8,13.7-8.9,22.3,0,5.7-.1,11.4-.2,17.1,0,1.7-.1,3.4-.2,5s-.7,1.6-1.9,1.5l-12.5-1c-5.2-.4-10.4-.5-15.6.9-14.3,3.9-23.8,13.1-27.5,27.3s.1,27.1,11.1,37.5c4.3,4,9.5,6.5,14.7,8.9a5.1,5.1,0,0,0,2.5.6h10.6l83.2.2c15.8,0,31.6-.3,47.4-.2a39.2,39.2,0,0,0,20.8-5.9c21.6-13.1,27.3-35.6,22.3-54.1s-23.6-39.6-55.1-34.5C313.7,236.9,308.7,237.9,303.6,238.9Z" fill="#fff"/><path d="M71.6,213.4a2.6,2.6,0,0,1,2.6-1.7l22.5-.3c3.2,0,6.3.2,9.5.4s3.2.9,3.3,3.3a36.3,36.3,0,0,1-.3,5.7c-.1,1.4-1,2-2.4,2.1s-4.9.3-7.4.3L73,223H72l-.4-2.9Z" fill="#fff"/><path d="M210.3,190.7l-6.2-5.6c-24.1-21.4-63-9.6-70.5,21.8-3.8,15.6,0,29.6,11.6,41.2l3.3,3.2-7.1,9.9c-.6.8-1.3.6-1.9,0l-3.7-3.4a55.1,55.1,0,0,1-17.3-39.2c-.3-13.4,4-25.4,12.3-36s20.2-18.6,34.4-21c17.3-2.9,32.9,1.4,46.6,12.4,2.1,1.7,4.1,3.6,6.1,5.5a1.8,1.8,0,0,1,.1,2.9C215.4,185.1,212.9,187.9,210.3,190.7Z" fill="#fff"/><path d="M98,286.4l12-11.7,13.3-12.8c1.7-1.5,1.8-1.5,3.5.1a43.8,43.8,0,0,1,4.1,4.5,2.3,2.3,0,0,1-.1,3.5c-6.9,6.9-13.7,14-20.8,20.7-4.3,4-5.9,3.7-9.5-.9Z" fill="#fff"/><path d="M97.8,148c2.2-2,4.1-4,6.1-5.7s2.3-1.7,4.1.1c6,5.6,11.9,11.3,17.8,17,1.9,1.9,3.6,3.9,5.5,5.8a1.8,1.8,0,0,1,0,2.9l-4.7,4.8c-1.1,1.1-2.1,1.1-3.3-.1L106,156Z" fill="#fff"/><path d="M252,147.7a6.2,6.2,0,0,1-1,1.6c-3.6,3.9-7.2,7.9-10.9,11.7s-8.2,8-12.2,12c-1.1,1.1-2,1-3.1,0s-3.1-2.9-4.5-4.4-1.6-1.9,0-3.6c5.9-6,11.7-12.1,17.7-18,1.8-1.9,3.9-3.5,5.8-5.3a1.8,1.8,0,0,1,2.6-.1l5,4.9A6.7,6.7,0,0,1,252,147.7Z" fill="#fff"/><path d="M169.6,150.9c0-8.6,0-17.1.1-25.6,0-3.3.1-6.6.1-9.9.1-1.2.6-1.9,1.8-1.9h8.7v37.4Z" fill="#fff"/></svg>