<?xml version="1.0" encoding="utf-8"?>
<!-- Generator: Adobe Illustrator 25.1.0, SVG Export Plug-In . SVG Version: 6.00 Build 0)  -->
<svg version="1.1" id="Layer_1" xmlns="http://www.w3.org/2000/svg" xmlns:xlink="http://www.w3.org/1999/xlink" x="0px" y="0px"
	 width="454.1px" height="473.1px" viewBox="0 0 454.1 473.1" style="enable-background:new 0 0 454.1 473.1;" xml:space="preserve"
	>
<style type="text/css">
	.st0{fill:#FFFFFF;}
</style>
<path d="M236.5,0c-93.4,0-169,75.7-169,169c0,151.7,136.1,277.9,164.1,302.2c2.9,2.5,7.1,2.5,10,0c28-24.3,164.1-150.5,164.1-302.2
	C405.6,75.7,329.9,0,236.5,0z"/>
<circle class="st0" cx="236.6" cy="169.4" r="123.1"/>
<path d="M321.4,120.3c-7,0-6.8-1.4-20.3-1.4v5.2h1.7c3.5,0.4,14.9,2.6,10.9,12.5L275.5,225l-24.8-49.8l21-37.5
	c2-3,9.6-13.3,21.7-13.7v-5.2c-12.9,0-14.6,1.4-21.7,1.4c-7.1,0-7.3-1.4-22-1.4v5.2c3.2,0.3,17.9,2.7,12.5,12.8
	c-0.4,0.7-0.6,1.4-0.9,1.9l-14.8,27.8l-14.9-29.9c-1.2-3.4-2.3-12.8,9.7-12.6h1.4v-5.2c-15.6,0-16.2,1.4-24.8,1.4s-5-1.4-22.7-1.4
	v5.2h0.9c2.4,0.1,10.7,1.5,17.5,13.9l22.6,48l-21.5,40l-40.1-89c-0.7-2.7-1.9-13,10.8-12.8h3.1v-5.2c-16.8,0-19,1.4-28.2,1.4
	s-9.5-1.4-28.6-1.4v5.2h3.8l-2,0.1c0,0,14.8-0.9,22.4,16c0.2,0.4,0.4,0.7,0.6,1.1l47.8,108.6h4.6l31.2-55.8l26.3,55.8h4.7L322.7,137
	c1.9-3.7,7.7-12.8,18.2-13.1h0.5v-5.2C329.5,118.9,327.9,120.3,321.4,120.3z"/>
</svg>
