<svg xmlns="http://www.w3.org/2000/svg" width="160.2mm" height="160.2mm" viewBox="0 0 454.1 454.1"><circle cx="227.1" cy="227.1" r="227.1"/><path d="M359.8,143.1c-11.3,0-10.9-2.3-32.7-2.3v8.3h2.8c5.7.6,24,4.2,17.5,20.2L285.8,311.9l-39.9-80.3,33.8-60.4c3.2-4.9,15.5-21.5,34.9-22.1v-8.3c-20.8,0-23.6,2.3-35,2.3s-11.8-2.3-35.4-2.3v8.3c5.1.5,28.8,4.3,20.1,20.7-.6,1.2-1,2.2-1.4,3.1L239,217.7l-24-48.2c-2-5.5-3.7-20.6,15.6-20.3h2.3v-8.3c-25.2,0-26.1,2.3-40,2.3s-8-2.3-36.6-2.3v8.3h1.4c3.8.2,17.3,2.4,28.2,22.4l36.5,77.3-34.6,64.5L123.2,169.9c-1.1-4.3-3.1-21,17.4-20.7h5v-8.3c-27,0-30.6,2.3-45.4,2.3s-15.3-2.3-46.1-2.3v8.3h6.1l-3.2.2s23.8-1.5,36.1,25.8c.3.7.6,1.1.9,1.7L171,352h7.4l50.3-89.9L271.1,352h7.6l83.2-181.9c3.1-5.9,12.4-20.6,29.3-21.1h.8v-8.3C372.8,140.8,370.3,143.1,359.8,143.1Z" transform="translate(0 0)" fill="#fff"/></svg>